# xmcd CD database file
#
# Track frame offsets:
#	182
#	16880
#	23822
#	32207
#	50107
#	62865
#	74852
#	87082
#	100815
#	121587
#	139567
#	153960
#	165945
#	179532
#	196377
#	210130
#
# Disc length: 3008 seconds
#
# Revision: 0
# Processed by: cddbd v1.5.1PL2 Copyright (c) Steve Scherf et al.
# Submitted via: CDex 1.51
#
DISCID=d10bbe10
DTITLE=Lightnin' Hopkins - Texas Blues
DYEAR=1900
DGENRE=Blues
TTITLE0=Fishing Clothes
TTITLE1=Play With Your Poodle
TTITLE2=You're Too Fast
TTITLE3=Found My Baby Crying
TTITLE4=I'm Comin' Home
TTITLE5=Rock Me Mama
TTITLE6=Lonesome Dog Blues
TTITLE7=Breakfast Time
TTITLE8=Morning Blues
TTITLE9=Gamblers Blues
TTITLE10=Ride In Your New Automobile
TTITLE11=Mr Charlie
TTITLE12=Lovin' Arms
TTITLE13=Wig Wearing Woman
TTITLE14=Last Affair
TTITLE15=Love Me This Morning
EXTD=
EXTT0=
EXTT1=
EXTT2=
EXTT3=
EXTT4=
EXTT5=
EXTT6=
EXTT7=
EXTT8=
EXTT9=
EXTT10=
EXTT11=
EXTT12=
EXTT13=
EXTT14=
EXTT15=
PLAYORDER=
